Coordinates
version=1
nRows=24
nColumns=24
inDegrees=yes

Units are S.I. units (second, meters, Newtons, ...)
Angles are in degrees.

endheader
time	pelvis_tilt	pelvis_list	pelvis_rotation	pelvis_tx	pelvis_ty	pelvis_tz	hip_flexion_r	hip_adduction_r	hip_rotation_r	knee_angle_r	ankle_angle_r	subtalar_angle_r	mtp_angle_r	hip_flexion_l	hip_adduction_l	hip_rotation_l	knee_angle_l	ankle_angle_l	subtalar_angle_l	mtp_angle_l	lumbar_extension	lumbar_bending	lumbar_rotation
      0.01000000	     66.40663189	    -14.86138354	      5.10991520	      0.53618961	      0.94936285	     -0.23440759	     -1.82290624	    -11.08534512	    -18.16201571	    -61.17700564	    -17.21266431	      0.00000000	      0.00000000	     19.24338666	    -11.45102637	     18.14349858	    -13.68553731	    -36.26403421	      0.00000000	      0.00000000	      0.00000000	      0.00000000	      0.00000000
      0.02000000	     66.42856555	    -14.86467613	      5.12863734	      0.53612910	      0.94931314	     -0.23458099	     -1.83008321	    -11.09305106	    -18.15657103	    -61.16491672	    -17.20649565	      0.00000000	      0.00000000	     19.23884494	    -11.45569947	     18.13972132	    -13.69313134	    -36.27671730	      0.00000000	      0.00000000	      0.00000000	      0.00000000	      0.00000000
      0.03000000	     66.44878281	    -14.86519045	      5.14070158	      0.53608480	      0.94928054	     -0.23468253	     -1.84115941	    -11.09235941	    -18.15410354	    -61.16084429	    -17.20119458	      0.00000000	      0.00000000	     19.23229576	    -11.45218650	     18.13071041	    -13.69872854	    -36.29211587	      0.00000000	      0.00000000	      0.00000000	      0.00000000	      0.00000000
      0.04000000	     66.46815644	    -14.86297603	      5.14813766	      0.53605143	      0.94925788	     -0.23473580	     -1.85258327	    -11.08780585	    -18.15247879	    -61.16479648	    -17.19696382	      0.00000000	      0.00000000	     19.22446729	    -11.44436009	     18.11448632	    -13.70189149	    -36.31034057	      0.00000000	      0.00000000	      0.00000000	      0.00000000	      0.00000000
      0.05000000	     66.48655919	    -14.85793340	      5.15121993	      0.53601481	      0.94923798	     -0.23478201	     -1.86056668	    -11.08261039	    -18.14975422	    -61.17704009	    -17.19412735	      0.00000000	      0.00000000	     19.21724138	    -11.43575188	     18.08919919	    -13.70216561	    -36.33085732	      0.00000000	      0.00000000	      0.00000000	      0.00000000	      0.00000000
      0.06000000	     66.50239456	    -14.85102282	      5.14894200	      0.53596617	      0.94921287	     -0.23483188	     -1.86144101	    -11.07830284	    -18.14441590	    -61.19718727	    -17.19294155	      0.00000000	      0.00000000	     19.21345875	    -11.42892841	     18.05428079	    -13.69966279	    -36.35219541	      0.00000000	      0.00000000	      0.00000000	      0.00000000	      0.00000000
      0.07000000	     66.51287176	    -14.84438999	      5.14032215	      0.53591325	      0.94918004	     -0.23485444	     -1.85186165	    -11.07482572	    -18.13596824	    -61.22387171	    -17.19353595	      0.00000000	      0.00000000	     19.21650548	    -11.42587625	     18.01141743	    -13.69547981	    -36.37194060	      0.00000000	      0.00000000	      0.00000000	      0.00000000	      0.00000000
      0.08000000	     66.51471538	    -14.83999852	      5.12526913	      0.53587372	      0.94914382	     -0.23482399	     -1.82974425	    -11.06996010	    -18.12615917	    -61.25557129	    -17.19607348	      0.00000000	      0.00000000	     19.22995339	    -11.42819163	     17.96506393	    -13.69161495	    -36.38697629	      0.00000000	      0.00000000	      0.00000000	      0.00000000	      0.00000000
      0.09000000	     66.50550603	    -14.83930348	      5.10621269	      0.53585874	      0.94910829	     -0.23474551	     -1.79519574	    -11.06031187	    -18.11921170	    -61.29106571	    -17.20080009	      0.00000000	      0.00000000	     19.25710853	    -11.43669907	     17.92218970	    -13.69044656	    -36.39395566	      0.00000000	      0.00000000	      0.00000000	      0.00000000	      0.00000000
      0.10000000	     66.48527695	    -14.84385844	      5.08944591	      0.53586454	      0.94907269	     -0.23464021	     -1.75102875	    -11.04339751	    -18.12088803	    -61.32917622	    -17.20786582	      0.00000000	      0.00000000	     19.30031180	    -11.45064296	     17.89109849	    -13.69388533	    -36.38994843	      0.00000000	      0.00000000	      0.00000000	      0.00000000	      0.00000000
      0.11000000	     66.45744207	    -14.85487562	      5.08383841	      0.53588205	      0.94902844	     -0.23453089	     -1.70298839	    -11.01848283	    -18.13750676	    -61.36858885	    -17.21709039	      0.00000000	      0.00000000	     19.35984127	    -11.46676126	     17.87949833	    -13.70238614	    -36.37315425	      0.00000000	      0.00000000	      0.00000000	      0.00000000	      0.00000000
      0.12000000	     66.42869216	    -14.87188787	      5.09770486	      0.53590947	      0.94895846	     -0.23443736	     -1.65920825	    -10.98691544	    -18.17466855	    -61.40755130	    -17.22774395	      0.00000000	      0.00000000	     19.43242904	    -11.47929392	     17.89232136	    -13.71433495	    -36.34358950	      0.00000000	      0.00000000	      0.00000000	      0.00000000	      0.00000000
      0.13000000	     66.40754673	    -14.89154060	      5.13578234	      0.53594847	      0.94884847	     -0.23437476	     -1.62889433	    -10.95308113	    -18.23516334	    -61.44330663	    -17.23845389	      0.00000000	      0.00000000	     19.50980027	    -11.48172728	     17.92987034	    -13.72629884	    -36.30358959	      0.00000000	      0.00000000	      0.00000000	      0.00000000	      0.00000000
      0.14000000	     66.40187121	    -14.90735778	      5.19705577	      0.53598786	      0.94870331	     -0.23434676	     -1.62088014	    -10.92485080	    -18.31674677	    -61.47205485	    -17.24742655	      0.00000000	      0.00000000	     19.57838583	    -11.46926225	     17.98670608	    -13.73385213	    -36.25783452	      0.00000000	      0.00000000	      0.00000000	      0.00000000	      0.00000000
      0.15000000	     66.41692876	    -14.91094243	      5.27385225	      0.53600076	      0.94854858	     -0.23434480	     -1.64205252	    -10.91192531	    -18.41106614	    -61.49001175	    -17.25298180	      0.00000000	      0.00000000	     19.62146931	    -11.44029848	     18.05155273	    -13.73226000	    -36.21268767	      0.00000000	      0.00000000	      0.00000000	      0.00000000	      0.00000000
      0.16000000	     66.45508974	    -14.89432212	      5.35289001	      0.53596959	      0.94842112	     -0.23435950	     -1.69517772	    -10.92206564	    -18.50454644	    -61.49506592	    -17.25413023	      0.00000000	      0.00000000	     19.62355788	    -11.39618365	     18.10842705	    -13.71686620	    -36.17492147	      0.00000000	      0.00000000	      0.00000000	      0.00000000	      0.00000000
      0.17000000	     66.51619170	    -14.85248585	      5.41847307	      0.53590707	      0.94835810	     -0.23437573	     -1.77677472	    -10.95751505	    -18.58094906	    -61.48784660	    -17.25085594	      0.00000000	      0.00000000	     19.57511851	    -11.34022523	     18.13916541	    -13.68366147	    -36.15011310	      0.00000000	      0.00000000	      0.00000000	      0.00000000	      0.00000000
      0.18000000	     66.59686521	    -14.78491070	      5.45658461	      0.53582431	      0.94837680	     -0.23434441	     -1.87688633	    -11.01421476	    -18.62458516	    -61.47155530	    -17.24396845	      0.00000000	      0.00000000	     19.47574896	    -11.27760541	     18.12725260	    -13.63025423	    -36.14107695	      0.00000000	      0.00000000	      0.00000000	      0.00000000	      0.00000000
      0.19000000	     66.68953109	    -14.69601944	      5.45795517	      0.53568045	      0.94846212	     -0.23419120	     -1.98121570	    -11.08381475	    -18.62329955	    -61.45089853	    -17.23464652	      0.00000000	      0.00000000	     19.33469475	    -11.21571852	     18.06201784	    -13.55684655	    -36.14683583	      0.00000000	      0.00000000	      0.00000000	      0.00000000	      0.00000000
      0.20000000	     66.78329574	    -14.59512078	      5.41914265	      0.53543844	      0.94857897	     -0.23389619	     -2.07425319	    -11.15640888	    -18.57084264	    -61.43071100	    -17.22392918	      0.00000000	      0.00000000	     19.16859191	    -11.16323911	     17.94166590	    -13.46671875	    -36.16265064	      0.00000000	      0.00000000	      0.00000000	      0.00000000	      0.00000000
      0.21000000	     66.86638889	    -14.49518147	      5.34245731	      0.53517130	      0.94869064	     -0.23353581	     -2.14224377	    -11.22258106	    -18.46854408	    -61.41446979	    -17.21238711	      0.00000000	      0.00000000	     18.99747026	    -11.12794576	     17.77404962	    -13.36596479	    -36.18127568	      0.00000000	      0.00000000	      0.00000000	      0.00000000	      0.00000000
      0.22000000	     66.92797806	    -14.40965079	      5.23575932	      0.53499643	      0.94878285	     -0.23319541	     -2.17565455	    -11.27473764	    -18.32618708	    -61.40290356	    -17.20010397	      0.00000000	      0.00000000	     18.84080079	    -11.11463664	     17.57513601	    -13.26241453	    -36.19503328	      0.00000000	      0.00000000	      0.00000000	      0.00000000	      0.00000000
      0.23000000	     66.95971136	    -14.34860474	      5.11129053	      0.53493975	      0.94886981	     -0.23289429	     -2.17107282	    -11.30803736	    -18.16174989	    -61.39343451	    -17.18694431	      0.00000000	      0.00000000	     18.71467481	    -11.12431960	     17.36596957	    -13.16416909	    -36.19794469	      0.00000000	      0.00000000	      0.00000000	      0.00000000	      0.00000000
      0.24000000	     66.95794503	    -14.31675583	      4.98304732	      0.53496136	      0.94896492	     -0.23263376	     -2.13231019	    -11.32093697	    -17.99948274	    -61.38110646	    -17.17291596	      0.00000000	      0.00000000	     18.62999432	    -11.15470017	     17.16910944	    -13.07845804	    -36.18725717	      0.00000000	      0.00000000	      0.00000000	      0.00000000	      0.00000000
